<?xml version="1.0" encoding="iso-8859-1"?>
<!-- Generator: Adobe Illustrator 29.8.2, SVG Export Plug-In . SVG Version: 9.03 Build 0)  -->
<svg version="1.1" id="Ebene_1" xmlns="http://www.w3.org/2000/svg" xmlns:xlink="http://www.w3.org/1999/xlink" x="0px" y="0px"
	 viewBox="0 0 248.351 47.166" enable-background="new 0 0 248.351 47.166" xml:space="preserve">
<path d="M41.133,3.692h9.568c10.348,0,17.004,5.148,17.004,16.797s-6.656,17.108-16.588,17.108h-9.984V3.692z M50.233,31.409
	c5.772,0,9.621-2.808,9.621-10.92S56.005,9.881,50.233,9.881h-1.456v21.528H50.233z"/>
<path d="M73.528,11.805h6.24l0.52,4.524h0.208c1.872-3.484,4.681-5.148,7.333-5.148c1.456,0,2.34,0.208,3.068,0.52l-1.456,6.5
	c-0.884-0.208-1.508-0.312-2.6-0.312c-1.924,0-4.316,1.248-5.668,4.732v14.977h-7.644V11.805z"/>
<path d="M92.664,33.281l4.056-4.992c2.393,2.132,5.721,3.328,8.685,3.328c3.172,0,4.732-1.248,4.732-3.276
	c0-2.132-1.924-2.808-4.889-4.056l-4.42-1.82c-3.484-1.456-6.812-4.368-6.812-9.308c0-5.616,4.992-10.088,12.064-10.088
	c4.057,0,8.009,1.56,10.921,4.264l-4.057,4.94c-2.236-1.612-4.576-2.6-6.864-2.6c-2.652,0-4.316,1.144-4.316,3.068
	c0,2.08,2.236,2.808,5.148,4.004l4.368,1.768c4.16,1.664,6.708,4.42,6.708,9.205c0,5.616-4.68,10.504-12.792,10.504
	C100.62,38.222,96.095,36.662,92.664,33.281z"/>
<path d="M8.652,33.353l3.484-4.289c2.056,1.832,4.915,2.859,7.461,2.859c2.725,0,4.066-1.072,4.066-2.815
	c0-1.832-1.653-2.413-4.2-3.485l-3.797-1.564c-2.994-1.251-5.853-3.753-5.853-7.997c0-4.825,4.289-8.668,10.365-8.668
	c3.485,0,6.881,1.34,9.383,3.664l-3.485,4.244c-1.921-1.385-3.932-2.233-5.898-2.233c-2.278,0-3.708,0.983-3.708,2.636
	c0,1.787,1.921,2.413,4.423,3.44l3.753,1.519c3.574,1.43,5.763,3.798,5.763,7.908c0,4.825-4.021,9.025-10.99,9.025
	C15.488,37.598,11.601,36.257,8.652,33.353z"/>
<g fill="currentColor">
	<path d="M22.664,29.109c0-0.979-0.771-1.384-3.158-2.383l-1.64-0.677c-0.624,1.688-1.575,2.922-2.796,3.774
		c1.425,0.699,3.02,1.1,4.529,1.1C21.633,30.923,22.664,30.313,22.664,29.109z"/>
	<path d="M7.951,34.065l-0.647-0.638l1.64-2.019H7.644V9.881H9.1c0.732,0,1.432,0.041,2.099,0.128
		c2.045-2.227,5.244-3.614,8.98-3.614c0.012,0,0.023,0.002,0.035,0.002C17.417,4.574,13.81,3.692,9.568,3.692H0v33.905h9.984
		c1.068,0,2.09-0.076,3.079-0.203C11.15,36.627,9.415,35.508,7.951,34.065z"/>
	<path d="M26.253,16.664l-0.762-0.549c-1.882-1.357-3.669-2.045-5.312-2.045c-0.605,0-1.804,0.091-2.381,0.742
		c0.254,0.634,0.458,1.341,0.608,2.125c0.518,0.309,1.257,0.631,2.281,1.046l4.334,1.756c0.554,0.222,1.069,0.465,1.55,0.726
		c-0.001-1.373-0.101-2.65-0.282-3.844L26.253,16.664z"/>
</g>
<path d="M122.616,4.004c0-2.392,1.768-4.004,4.315-4.004c2.549,0,4.316,1.612,4.316,4.004c0,2.444-1.768,4.004-4.316,4.004
	C124.384,8.009,122.616,6.448,122.616,4.004z M123.136,11.805h7.645v25.793h-7.645V11.805z"/>
<path d="M137.487,11.805h6.24l0.521,3.328h0.208c2.132-2.132,4.42-3.952,7.8-3.952c3.641,0,5.824,1.56,7.125,4.316
	c2.287-2.34,4.68-4.316,8.111-4.316c5.564,0,8.061,3.952,8.061,10.4v16.017h-7.645V22.569c0-3.744-0.987-4.889-3.172-4.889
	c-1.3,0-2.756,0.832-4.42,2.496v17.421h-7.645V22.569c0-3.744-0.988-4.889-3.172-4.889c-1.248,0-2.756,0.832-4.368,2.496v17.421
	h-7.645V11.805z"/>
<path d="M182.051,11.805h6.24l0.521,2.548h0.208c2.027-1.82,4.628-3.172,7.332-3.172c6.24,0,10.088,5.148,10.088,13.104
	c0,8.84-5.304,13.937-10.868,13.937c-2.235,0-4.315-0.988-6.136-2.704l0.26,4.108v7.54h-7.645V11.805z M198.588,24.389
	c0-4.628-1.404-6.968-4.473-6.968c-1.56,0-2.912,0.728-4.42,2.34v10.557c1.352,1.248,2.809,1.664,4.108,1.664
	C196.455,31.981,198.588,29.693,198.588,24.389z"/>
<path d="M211.846,29.537V1.145h7.645V29.85c0,1.664,0.728,2.184,1.404,2.184c0.26,0,0.468,0,0.884-0.104l0.936,5.616
	c-0.832,0.364-2.132,0.624-3.848,0.624C213.615,38.17,211.846,34.79,211.846,29.537z"/>
<path d="M225.211,24.701c0-8.372,5.98-13.521,12.168-13.521c7.385,0,10.973,5.356,10.973,12.376c0,1.352-0.156,2.704-0.312,3.484
	h-15.393c0.832,4.004,3.744,5.305,6.656,5.305c1.924,0,3.796-0.572,5.616-1.664l2.496,4.68c-2.601,1.82-6.084,2.86-9.152,2.86
	C230.879,38.222,225.211,33.281,225.211,24.701z M232.647,21.737h9.152c0-2.704-1.196-4.681-4.265-4.681
	C235.508,17.057,233.323,18.201,232.647,21.737z"/>
</svg>
